<svg version="1.1" xmlns="http://www.w3.org/2000/svg" xmlns:xlink="http://www.w3.org/1999/xlink" width="931" height="576"><defs/><g><g transform="translate(-46,-38) scale(1,1)"><rect fill="#C0C0C0" stroke="none" x="391" y="55" width="168" height="117" opacity="0.2"/></g><g transform="translate(-46,-38) scale(1,1)"><rect fill="#ffffff" stroke="none" x="384" y="48" width="168" height="117"/></g><g transform="translate(-46,-38) scale(1,1)"><path fill="none" stroke="#000000" d="M 384 48 L 552 48 L 552 165 L 384 165 L 384 48 Z Z" stroke-miterlimit="10"/></g><g transform="translate(-46,-38) scale(1,1)"><path fill="none" stroke="#000000" d="M 384 73 L 552 73" stroke-miterlimit="10"/></g><g transform="translate(-46,-38) scale(1,1)"><path fill="none" stroke="#000000" d="M 384 156 L 552 156" stroke-miterlimit="10"/></g><g transform="translate(-46,-38) scale(1,1)"><g><path fill="none" stroke="none"/><text fill="#000000" stroke="none" font-family="Arial" font-size="13px" font-style="normal" font-weight="bold" text-decoration="none" x="453.54638671875" y="66">User</text></g></g><g transform="translate(-46,-38) scale(1,1)"><g><path fill="none" stroke="none"/><text fill="#000000" stroke="none" font-family="Arial" font-size="13px" font-style="normal" font-weight="normal" text-decoration="none" x="389" y="89">-id: int</text></g></g><g transform="translate(-46,-38) scale(1,1)"><g><path fill="none" stroke="none"/><text fill="#000000" stroke="none" font-family="Arial" font-size="13px" font-style="normal" font-weight="normal" text-decoration="none" x="389" y="104">-firstName: string</text></g></g><g transform="translate(-46,-38) scale(1,1)"><g><path fill="none" stroke="none"/><text fill="#000000" stroke="none" font-family="Arial" font-size="13px" font-style="normal" font-weight="normal" text-decoration="none" x="389" y="119">-lastName: string</text></g></g><g transform="translate(-46,-38) scale(1,1)"><g><path fill="none" stroke="none"/><text fill="#000000" stroke="none" font-family="Arial" font-size="13px" font-style="normal" font-weight="normal" text-decoration="none" x="389" y="134">-email: string</text></g></g><g transform="translate(-46,-38) scale(1,1)"><g><path fill="none" stroke="none"/><text fill="#000000" stroke="none" font-family="Arial" font-size="13px" font-style="normal" font-weight="normal" text-decoration="none" x="389" y="149">-password: string</text></g></g><g transform="translate(-46,-38) scale(1,1)"><rect fill="#C0C0C0" stroke="none" x="63" y="207" width="159" height="194" opacity="0.2"/></g><g transform="translate(-46,-38) scale(1,1)"><rect fill="#ffffff" stroke="none" x="56" y="200" width="159" height="194"/></g><g transform="translate(-46,-38) scale(1,1)"><path fill="none" stroke="#000000" d="M 56 200 L 215 200 L 215 394 L 56 394 L 56 200 Z Z" stroke-miterlimit="10"/></g><g transform="translate(-46,-38) scale(1,1)"><path fill="none" stroke="#000000" d="M 56 225 L 215 225" stroke-miterlimit="10"/></g><g transform="translate(-46,-38) scale(1,1)"><path fill="none" stroke="#000000" d="M 56 385 L 215 385" stroke-miterlimit="10"/></g><g transform="translate(-46,-38) scale(1,1)"><g><path fill="none" stroke="none"/><text fill="#000000" stroke="none" font-family="Arial" font-size="13px" font-style="normal" font-weight="bold" text-decoration="none" x="113.464111328125" y="218">Project</text></g></g><g transform="translate(-46,-38) scale(1,1)"><g><path fill="none" stroke="none"/><text fill="#000000" stroke="none" font-family="Arial" font-size="13px" font-style="normal" font-weight="normal" text-decoration="none" x="61" y="243">-id: int</text></g></g><g transform="translate(-46,-38) scale(1,1)"><g><path fill="none" stroke="none"/><text fill="#000000" stroke="none" font-family="Arial" font-size="13px" font-style="normal" font-weight="normal" text-decoration="none" x="61" y="258">-title: string</text></g></g><g transform="translate(-46,-38) scale(1,1)"><g><path fill="none" stroke="none"/><text fill="#000000" stroke="none" font-family="Arial" font-size="13px" font-style="normal" font-weight="normal" text-decoration="none" x="61" y="273">-description</text></g></g><g transform="translate(-46,-38) scale(1,1)"><g><path fill="none" stroke="none"/><text fill="#000000" stroke="none" font-family="Arial" font-size="13px" font-style="normal" font-weight="normal" text-decoration="none" x="61" y="288">-technologies: string</text></g></g><g transform="translate(-46,-38) scale(1,1)"><g><path fill="none" stroke="none"/><text fill="#000000" stroke="none" font-family="Arial" font-size="13px" font-style="normal" font-weight="normal" text-decoration="none" x="61" y="303">-startDate: date</text></g></g><g transform="translate(-46,-38) scale(1,1)"><g><path fill="none" stroke="none"/><text fill="#000000" stroke="none" font-family="Arial" font-size="13px" font-style="normal" font-weight="normal" text-decoration="none" x="61" y="317.5">-status: enum</text></g></g><g transform="translate(-46,-38) scale(1,1)"><g><path fill="none" stroke="none"/><text fill="#000000" stroke="none" font-family="Arial" font-size="13px" font-style="normal" font-weight="normal" text-decoration="none" x="61" y="333">-githubUrl: string</text></g></g><g transform="translate(-46,-38) scale(1,1)"><g><path fill="none" stroke="none"/><text fill="#000000" stroke="none" font-family="Arial" font-size="13px" font-style="normal" font-weight="normal" text-decoration="none" x="61" y="348">-liveUrl: string</text></g></g><g transform="translate(-46,-38) scale(1,1)"><g><path fill="none" stroke="none"/><text fill="#000000" stroke="none" font-family="Arial" font-size="13px" font-style="normal" font-weight="normal" text-decoration="none" x="61" y="363">-image: string</text></g></g><g transform="translate(-46,-38) scale(1,1)"><g><path fill="none" stroke="none"/><text fill="#000000" stroke="none" font-family="Arial" font-size="13px" font-style="normal" font-weight="normal" text-decoration="none" x="61" y="378">-userId: User</text></g></g><g transform="translate(-46,-38) scale(1,1)"><rect fill="#C0C0C0" stroke="none" x="583" y="447" width="167" height="149" opacity="0.2"/></g><g transform="translate(-46,-38) scale(1,1)"><rect fill="#ffffff" stroke="none" x="576" y="440" width="167" height="149"/></g><g transform="translate(-46,-38) scale(1,1)"><path fill="none" stroke="#000000" d="M 576 440 L 743 440 L 743 589 L 576 589 L 576 440 Z Z" stroke-miterlimit="10"/></g><g transform="translate(-46,-38) scale(1,1)"><path fill="none" stroke="#000000" d="M 576 465 L 743 465" stroke-miterlimit="10"/></g><g transform="translate(-46,-38) scale(1,1)"><path fill="none" stroke="#000000" d="M 576 580 L 743 580" stroke-miterlimit="10"/></g><g transform="translate(-46,-38) scale(1,1)"><g><path fill="none" stroke="none"/><text fill="#000000" stroke="none" font-family="Arial" font-size="13px" font-style="normal" font-weight="bold" text-decoration="none" x="646.1318359375" y="458">Skill</text></g></g><g transform="translate(-46,-38) scale(1,1)"><g><path fill="none" stroke="none"/><text fill="#000000" stroke="none" font-family="Arial" font-size="13px" font-style="normal" font-weight="normal" text-decoration="none" x="581" y="483">-id: int</text></g></g><g transform="translate(-46,-38) scale(1,1)"><g><path fill="none" stroke="none"/><text fill="#000000" stroke="none" font-family="Arial" font-size="13px" font-style="normal" font-weight="normal" text-decoration="none" x="581" y="498">-name: string</text></g></g><g transform="translate(-46,-38) scale(1,1)"><g><path fill="none" stroke="none"/><text fill="#000000" stroke="none" font-family="Arial" font-size="13px" font-style="normal" font-weight="normal" text-decoration="none" x="581" y="513">-level: int</text></g></g><g transform="translate(-46,-38) scale(1,1)"><g><path fill="none" stroke="none"/><text fill="#000000" stroke="none" font-family="Arial" font-size="13px" font-style="normal" font-weight="normal" text-decoration="none" x="581" y="528">-category: string</text></g></g><g transform="translate(-46,-38) scale(1,1)"><g><path fill="none" stroke="none"/><text fill="#000000" stroke="none" font-family="Arial" font-size="13px" font-style="normal" font-weight="normal" text-decoration="none" x="581" y="543">-description: string</text></g></g><g transform="translate(-46,-38) scale(1,1)"><g><path fill="none" stroke="none"/><text fill="#000000" stroke="none" font-family="Arial" font-size="13px" font-style="normal" font-weight="normal" text-decoration="none" x="581" y="558">-icon: string</text></g></g><g transform="translate(-46,-38) scale(1,1)"><g><path fill="none" stroke="none"/><text fill="#000000" stroke="none" font-family="Arial" font-size="13px" font-style="normal" font-weight="normal" text-decoration="none" x="581" y="573">-userId: User</text></g></g><g transform="translate(-46,-38) scale(1,1)"><rect fill="#C0C0C0" stroke="none" x="815" y="143" width="159" height="177" opacity="0.2"/></g><g transform="translate(-46,-38) scale(1,1)"><rect fill="#ffffff" stroke="none" x="808" y="136" width="159" height="177"/></g><g transform="translate(-46,-38) scale(1,1)"><path fill="none" stroke="#000000" d="M 808 136 L 967 136 L 967 313 L 808 313 L 808 136 Z Z" stroke-miterlimit="10"/></g><g transform="translate(-46,-38) scale(1,1)"><path fill="none" stroke="#000000" d="M 808 161 L 967 161" stroke-miterlimit="10"/></g><g transform="translate(-46,-38) scale(1,1)"><path fill="none" stroke="#000000" d="M 808 304 L 967 304" stroke-miterlimit="10"/></g><g transform="translate(-46,-38) scale(1,1)"><g><path fill="none" stroke="none"/><text fill="#000000" stroke="none" font-family="Arial" font-size="13px" font-style="normal" font-weight="bold" text-decoration="none" x="849.1982421875" y="154">Experiences</text></g></g><g transform="translate(-46,-38) scale(1,1)"><g><path fill="none" stroke="none"/><text fill="#000000" stroke="none" font-family="Arial" font-size="13px" font-style="normal" font-weight="normal" text-decoration="none" x="813" y="177">-id: int</text></g></g><g transform="translate(-46,-38) scale(1,1)"><g><path fill="none" stroke="none"/><text fill="#000000" stroke="none" font-family="Arial" font-size="13px" font-style="normal" font-weight="normal" text-decoration="none" x="813" y="192">-title: string</text></g></g><g transform="translate(-46,-38) scale(1,1)"><g><path fill="none" stroke="none"/><text fill="#000000" stroke="none" font-family="Arial" font-size="13px" font-style="normal" font-weight="normal" text-decoration="none" x="813" y="207">-company: string</text></g></g><g transform="translate(-46,-38) scale(1,1)"><g><path fill="none" stroke="none"/><text fill="#000000" stroke="none" font-family="Arial" font-size="13px" font-style="normal" font-weight="normal" text-decoration="none" x="813" y="222">-startdate: date</text></g></g><g transform="translate(-46,-38) scale(1,1)"><g><path fill="none" stroke="none"/><text fill="#000000" stroke="none" font-family="Arial" font-size="13px" font-style="normal" font-weight="normal" text-decoration="none" x="813" y="237">-enddate: date</text></g></g><g transform="translate(-46,-38) scale(1,1)"><g><path fill="none" stroke="none"/><text fill="#000000" stroke="none" font-family="Arial" font-size="13px" font-style="normal" font-weight="normal" text-decoration="none" x="813" y="252">-description: string</text></g></g><g transform="translate(-46,-38) scale(1,1)"><g><path fill="none" stroke="none"/><text fill="#000000" stroke="none" font-family="Arial" font-size="13px" font-style="normal" font-weight="normal" text-decoration="none" x="813" y="267">-location: string</text></g></g><g transform="translate(-46,-38) scale(1,1)"><g><path fill="none" stroke="none"/><text fill="#000000" stroke="none" font-family="Arial" font-size="13px" font-style="normal" font-weight="normal" text-decoration="none" x="813" y="282">-type: string</text></g></g><g transform="translate(-46,-38) scale(1,1)"><g><path fill="none" stroke="none"/><text fill="#000000" stroke="none" font-family="Arial" font-size="13px" font-style="normal" font-weight="normal" text-decoration="none" x="813" y="297">-userId: User</text></g></g><g transform="translate(-46,-38) scale(1,1)"><rect fill="#C0C0C0" stroke="none" x="255" y="479" width="159" height="132" opacity="0.2"/></g><g transform="translate(-46,-38) scale(1,1)"><rect fill="#ffffff" stroke="none" x="248" y="472" width="159" height="132"/></g><g transform="translate(-46,-38) scale(1,1)"><path fill="none" stroke="#000000" d="M 248 472 L 407 472 L 407 604 L 248 604 L 248 472 Z Z" stroke-miterlimit="10"/></g><g transform="translate(-46,-38) scale(1,1)"><path fill="none" stroke="#000000" d="M 248 497 L 407 497" stroke-miterlimit="10"/></g><g transform="translate(-46,-38) scale(1,1)"><path fill="none" stroke="#000000" d="M 248 595 L 407 595" stroke-miterlimit="10"/></g><g transform="translate(-46,-38) scale(1,1)"><g><path fill="none" stroke="none"/><text fill="#000000" stroke="none" font-family="Arial" font-size="13px" font-style="normal" font-weight="bold" text-decoration="none" x="288.490478515625" y="490">Competence</text></g></g><g transform="translate(-46,-38) scale(1,1)"><g><path fill="none" stroke="none"/><text fill="#000000" stroke="none" font-family="Arial" font-size="13px" font-style="normal" font-weight="normal" text-decoration="none" x="253" y="513">-id: int</text></g></g><g transform="translate(-46,-38) scale(1,1)"><g><path fill="none" stroke="none"/><text fill="#000000" stroke="none" font-family="Arial" font-size="13px" font-style="normal" font-weight="normal" text-decoration="none" x="253" y="528">-name: string</text></g></g><g transform="translate(-46,-38) scale(1,1)"><g><path fill="none" stroke="none"/><text fill="#000000" stroke="none" font-family="Arial" font-size="13px" font-style="normal" font-weight="normal" text-decoration="none" x="253" y="543">-level: string</text></g></g><g transform="translate(-46,-38) scale(1,1)"><g><path fill="none" stroke="none"/><text fill="#000000" stroke="none" font-family="Arial" font-size="13px" font-style="normal" font-weight="normal" text-decoration="none" x="253" y="558">-category: string</text></g></g><g transform="translate(-46,-38) scale(1,1)"><g><path fill="none" stroke="none"/><text fill="#000000" stroke="none" font-family="Arial" font-size="13px" font-style="normal" font-weight="normal" text-decoration="none" x="253" y="573">-description: string</text></g></g><g transform="translate(-46,-38) scale(1,1)"><g><path fill="none" stroke="none"/><text fill="#000000" stroke="none" font-family="Arial" font-size="13px" font-style="normal" font-weight="normal" text-decoration="none" x="253" y="588">-userId: User</text></g></g><g transform="translate(-46,-38) scale(1,1)"><path fill="none" stroke="#000000" d="M 383 155 L 216 251" stroke-miterlimit="10"/></g><g transform="translate(-46,-38) scale(1,1)"><g><path fill="none" stroke="none"/><text fill="#000000" stroke="none" font-family="Arial" font-size="13px" font-style="normal" font-weight="normal" text-decoration="none" x="354.5" y="159">1</text></g></g><g transform="translate(-46,-38) scale(1,1)"><g><path fill="none" stroke="none"/><text fill="#000000" stroke="none" font-family="Arial" font-size="13px" font-style="normal" font-weight="normal" text-decoration="none" x="224.5" y="228">0..*</text></g></g><g transform="translate(-46,-38) scale(1,1)"><path fill="none" stroke="#000000" d="M 553 130 L 807 201" stroke-miterlimit="10"/></g><g transform="translate(-46,-38) scale(1,1)"><g><path fill="none" stroke="none"/><text fill="#000000" stroke="none" font-family="Arial" font-size="13px" font-style="normal" font-weight="normal" text-decoration="none" x="559.5" y="126">1</text></g></g><g transform="translate(-46,-38) scale(1,1)"><g><path fill="none" stroke="none"/><text fill="#000000" stroke="none" font-family="Arial" font-size="13px" font-style="normal" font-weight="normal" text-decoration="none" x="782.5" y="222">0..*</text></g></g><g transform="translate(-46,-38) scale(1,1)"><path fill="none" stroke="#000000" d="M 448 166 L 349 471" stroke-miterlimit="10"/></g><g transform="translate(-46,-38) scale(1,1)"><g><path fill="none" stroke="none"/><text fill="#000000" stroke="none" font-family="Arial" font-size="13px" font-style="normal" font-weight="normal" text-decoration="none" x="423.5" y="193">1</text></g></g><g transform="translate(-46,-38) scale(1,1)"><g><path fill="none" stroke="none"/><text fill="#000000" stroke="none" font-family="Arial" font-size="13px" font-style="normal" font-weight="normal" text-decoration="none" x="319.5" y="465">0..*</text></g></g><g transform="translate(-46,-38) scale(1,1)"><path fill="none" stroke="#000000" d="M 496 166 L 624 439" stroke-miterlimit="10"/></g><g transform="translate(-46,-38) scale(1,1)"><g><path fill="none" stroke="none"/><text fill="#000000" stroke="none" font-family="Arial" font-size="13px" font-style="normal" font-weight="normal" text-decoration="none" x="483.5" y="186">1</text></g></g><g transform="translate(-46,-38) scale(1,1)"><g><path fill="none" stroke="none"/><text fill="#000000" stroke="none" font-family="Arial" font-size="13px" font-style="normal" font-weight="normal" text-decoration="none" x="593.5" y="429">0..*</text></g></g></g></svg>